<mxfile host="app.diagrams.net" modified="2023-09-29T08:09:01.678Z" agent="Mozilla/5.0 (Windows NT 10.0; Win64; x64) AppleWebKit/537.36 (KHTML, like Gecko) Chrome/117.0.0.0 Safari/537.36" etag="nNPifnhnGLMecdjVR5hd" version="21.8.2" type="github">
  <diagram name="PÃ¡gina-1" id="aytSoL0TnzGYMa3c5e0-">
    <mxGraphModel dx="970" dy="987" grid="1" gridSize="10" guides="1" tooltips="1" connect="1" arrows="1" fold="1" page="1" pageScale="1" pageWidth="827" pageHeight="1169" math="0" shadow="0">
      <root>
        <mxCell id="0" />
        <mxCell id="1" parent="0" />
        <mxCell id="ivl3_HzQPIkz4OCi3NpX-3" value="" style="image;points=[];aspect=fixed;html=1;align=center;shadow=0;dashed=0;image=img/lib/allied_telesis/computer_and_terminals/Personal_Computer.svg;" vertex="1" parent="1">
          <mxGeometry x="140" y="380" width="45.6" height="61.800000000000004" as="geometry" />
        </mxCell>
        <mxCell id="ivl3_HzQPIkz4OCi3NpX-4" value="" style="image;points=[];aspect=fixed;html=1;align=center;shadow=0;dashed=0;image=img/lib/allied_telesis/computer_and_terminals/Personal_Computer.svg;" vertex="1" parent="1">
          <mxGeometry x="610" y="380" width="45.6" height="61.800000000000004" as="geometry" />
        </mxCell>
        <mxCell id="ivl3_HzQPIkz4OCi3NpX-5" value="" style="image;html=1;image=img/lib/clip_art/networking/Firewall_128x128.png" vertex="1" parent="1">
          <mxGeometry x="530" y="370.9" width="80" height="80" as="geometry" />
        </mxCell>
        <mxCell id="ivl3_HzQPIkz4OCi3NpX-6" value="" style="image;html=1;image=img/lib/clip_art/networking/Firewall_128x128.png" vertex="1" parent="1">
          <mxGeometry x="185.6" y="370.9" width="80" height="80" as="geometry" />
        </mxCell>
        <mxCell id="ivl3_HzQPIkz4OCi3NpX-7" value="" style="html=1;strokeWidth=1;shadow=0;dashed=0;shape=mxgraph.ios7.misc.vpn;fillColor=#007AFF;strokeColor=none;buttonText=;strokeColor2=#222222;fontColor=#222222;fontSize=8;verticalLabelPosition=bottom;verticalAlign=top;align=center;sketch=0;" vertex="1" parent="1">
          <mxGeometry x="380" y="410" width="45" height="50" as="geometry" />
        </mxCell>
        <mxCell id="ivl3_HzQPIkz4OCi3NpX-9" value="" style="shape=flexArrow;endArrow=classic;startArrow=classic;html=1;rounded=0;fillColor=#0050ef;strokeColor=#001DBC;" edge="1" parent="1">
          <mxGeometry width="100" height="100" relative="1" as="geometry">
            <mxPoint x="260" y="412" as="sourcePoint" />
            <mxPoint x="530" y="412" as="targetPoint" />
          </mxGeometry>
        </mxCell>
      </root>
    </mxGraphModel>
  </diagram>
</mxfile>
